# xmcd CD database file
#
# Track frame offsets:
#	150
#	15176
#	42314
#	60979
#	68384
#	78776
#	105774
#	144854
#	179472
#	212921
#
# Disc length: 3227 seconds
#
# Revision: 0
# Processed by: cddbd v1.5.2PL0 Copyright (c) Steve Scherf et al.
# Submitted via: CDex 1.51
#
DISCID=6b0c990a
DTITLE=Blema Bii - Blema Bii
DYEAR=2006
DGENRE=Jazz
TTITLE0=Such a Lively Morning
TTITLE1=Assoto
TTITLE2=Girl in the Woods
TTITLE3=Love
TTITLE4=Syrinx
TTITLE5=Waiting
TTITLE6=Lush Life
TTITLE7=Tango D'Moore
TTITLE8=Elsa
TTITLE9=Melody
EXTD=YEAR: 2006
EXTT0=
EXTT1=
EXTT2=
EXTT3=
EXTT4=
EXTT5=
EXTT6=
EXTT7=
EXTT8=
EXTT9=
PLAYORDER=
